<?xml version="1.0" standalone="no"?>
<!DOCTYPE svg PUBLIC "-//W3C//DTD SVG 20010904//EN"
 "http://www.w3.org/TR/2001/REC-SVG-20010904/DTD/svg10.dtd">
<svg version="1.0" xmlns="http://www.w3.org/2000/svg"
 width="260.000000pt" height="260.000000pt" viewBox="0 0 260.000000 260.000000"
 preserveAspectRatio="xMidYMid meet">
<metadata>
Created by potrace 1.14, written by Peter Selinger 2001-2017
</metadata>
<g transform="translate(0.000000,260.000000) scale(0.100000,-0.100000)"
fill="#000000" stroke="none">
<path d="M0 1300 l0 -1300 1300 0 1300 0 0 1300 0 1300 -1300 0 -1300 0 0
-1300z m1261 493 c33 -20 34 -25 15 -56 -22 -34 -84 -228 -116 -362 -28 -115
-53 -293 -45 -318 2 -7 6 -24 9 -39 5 -21 12 -28 30 -28 34 0 70 33 112 100
50 82 76 82 34 0 -26 -51 -26 -51 11 -38 24 8 53 8 111 -1 44 -7 81 -11 83 -9
20 23 135 343 135 373 0 5 -18 21 -39 34 -73 44 -91 115 -45 170 40 48 51 41
46 -31 -3 -53 -1 -67 18 -90 12 -16 25 -28 29 -28 5 0 25 42 45 93 63 157 121
228 202 243 36 7 89 -16 116 -50 25 -30 23 -119 -3 -176 -40 -90 -112 -144
-214 -163 l-67 -12 -39 -110 c-21 -60 -56 -146 -78 -190 -22 -44 -36 -84 -32
-88 5 -5 60 -22 122 -39 93 -24 127 -29 185 -25 66 5 71 4 67 -13 -3 -10 -18
-31 -35 -46 -26 -26 -36 -29 -96 -29 -58 1 -83 8 -180 50 -77 33 -118 46 -127
39 -51 -37 -69 -46 -104 -51 -23 -3 -54 0 -71 7 -36 15 -70 59 -70 90 0 21 -4
19 -43 -17 -24 -22 -60 -46 -80 -53 -32 -10 -42 -9 -70 7 -48 29 -60 75 -53
209 l6 111 -78 10 c-67 9 -79 8 -90 -6 -18 -21 -110 -205 -152 -301 -43 -100
-48 -105 -72 -83 -40 36 -6 147 99 319 23 39 43 77 43 83 0 7 -26 11 -75 11
-43 0 -75 4 -75 10 0 38 93 68 170 55 28 -5 39 -3 43 8 3 8 54 79 113 158 107
143 240 289 264 289 6 0 25 -8 41 -17z"/>
<path d="M1876 1745 c-15 -14 -40 -54 -56 -89 -35 -77 -81 -208 -76 -214 3 -2
22 2 42 10 50 17 111 80 140 143 59 127 27 222 -50 150z"/>
<path d="M1123 1668 c-46 -49 -213 -300 -213 -321 0 -6 100 -37 122 -37 9 0
21 26 33 73 10 39 37 127 60 195 24 67 40 122 36 122 -4 0 -21 -15 -38 -32z"/>
<path d="M1314 1006 c-8 -20 12 -53 37 -61 45 -15 121 17 105 43 -6 11 -84 32
-116 32 -11 0 -23 -6 -26 -14z"/>
</g>
</svg>
